<svg id="Layer_1" data-name="Layer 1" xmlns="http://www.w3.org/2000/svg" viewBox="0 0 240.04 88.07"><defs><style>.cls-1{fill:#333;}</style></defs><path class="cls-1" d="M23,118.81c-.56-.56-.79-1.12-.79-3.47,0-1,0-2.35.11-4,.12-3.7.34-7.39.45-8.07v-.44a2.45,2.45,0,0,0-.45-1.46,3.1,3.1,0,0,0-1.45-.22c-2.13,0-6.16.67-6.72,1.23a2.44,2.44,0,0,1-1.35.45,1.49,1.49,0,0,0-1.11.44c-.11.23-.45,2.92-.79,5.94-1,9.07-1.56,10.63-4,10.07l-1.57-.33v-4.14c0-2.35.12-4.37.45-4.71a17.62,17.62,0,0,0,.79-5.26c.22-3.13.33-6.27.56-9.4.11-2.47.44-5.15.44-5.83s.23-2.23.23-3.58a6.29,6.29,0,0,1,1.12-3.69,2.83,2.83,0,0,1,2-1.23,1.39,1.39,0,0,1,1.24,1,16.55,16.55,0,0,1,.22,3.36c0,1.91-.12,4.26-.22,6.83-.12,3-.34,6.16-.45,9.18l1.79-.33a38.45,38.45,0,0,1,5.37-.68c2-.11,3.81-.56,4-.89a41.54,41.54,0,0,0,.79-7.17c.56-8.51.67-10,1.68-10.75A2.77,2.77,0,0,1,26.84,81c1.35,0,1.79,2.47,1.79,8.4,0,8.51-1.45,27.66-2.12,28.55a2.77,2.77,0,0,1-2.24,1.46A1.8,1.8,0,0,1,23,118.81Z" transform="translate(-4.98 -80.96)"/><path class="cls-1" d="M43.52,119.14c-1-.78-1.46-1.9-1.46-4.25a94.08,94.08,0,0,1,1.12-10.3l1-6.83c.45-2.91,1-5.94,1.23-6.61a20.39,20.39,0,0,0,.79-2.8c.67-4.48,1.23-5.15,2.68-5.71a7.31,7.31,0,0,1,1.68-.56c.56,0,.67.45.79,1.23a1.33,1.33,0,0,0,1.34,1.24c2.8,0,5.71.11,8.51.11,4.14,0,7.61.11,7.72.33.34.68-2.46,1.12-8.51,1.12a40.28,40.28,0,0,0-7.5.45l-1.9.56c-.11.79-.11,1.57-.22,2.35L50,95c-.22,1.68-.45,2.68-.45,3.47,0,1.23.45,1.45,2.24,1.45,5.6,0,8.29-.33,9.41-1,.78-.45,1.57-.68,1.79-.45.9.89-1.12,1.57-5.71,1.9-6.72.45-7.5.79-8.4,2.35s-2.12,10.64-2.12,13.89c0,.56,0,.89.11,1,.22.33,1.45.55,2.68.55,2,0,3.25-.22,8.52-1.45a3.42,3.42,0,0,1,1-.11c.34,0,.56.11.56.22,0,.34-.9,1-2.35,1.46-1.12.33-2.35.78-2.69.89a19.78,19.78,0,0,1-2.8.56l-2.57.34a4.3,4.3,0,0,1-1.23.11A9.45,9.45,0,0,1,43.52,119.14Z" transform="translate(-4.98 -80.96)"/><path class="cls-1" d="M77.1,117.69a7.71,7.71,0,0,1-.33-3,94,94,0,0,1,.89-11.42c.23-1.79.34-4.7.45-6.38A56.82,56.82,0,0,1,79.9,85.67c.45-1.12.79-1.24,2.47-1.12l1.9.11c0,2.35-.11,4.81-.11,7.16-.12,7.39-1.35,20.27-2.24,22.4a2.53,2.53,0,0,0-.23,1.23c0,.89.45,1.68,1.35,1.68A27.06,27.06,0,0,0,89,115.9a7.31,7.31,0,0,1,2.13-.56,7.94,7.94,0,0,0,2.91-.56,8.3,8.3,0,0,1,1.34-.45c.45,0,.56.22.79.56a1.89,1.89,0,0,1,.22.56c0,.67-.9,1-2.8,1-1.12,0-2,.11-2,.33,0,.45-10.53,2.13-12.66,1.79A3.09,3.09,0,0,1,77.1,117.69Z" transform="translate(-4.98 -80.96)"/><path class="cls-1" d="M104.53,117.69a7.63,7.63,0,0,1-.34-3,94.5,94.5,0,0,1,.9-11.42c.22-1.79.34-4.7.45-6.38a56.82,56.82,0,0,1,1.79-11.19c.45-1.12.78-1.24,2.46-1.12l1.9.11c0,2.35-.11,4.81-.11,7.16-.11,7.39-1.34,20.27-2.23,22.4a2.53,2.53,0,0,0-.23,1.23c0,.89.45,1.68,1.34,1.68a27,27,0,0,0,5.94-1.23,7.31,7.31,0,0,1,2.13-.56,7.94,7.94,0,0,0,2.91-.56,8.3,8.3,0,0,1,1.34-.45c.45,0,.56.22.78.56a1.72,1.72,0,0,1,.23.56c0,.67-.9,1-2.8,1-1.12,0-2,.11-2,.33,0,.45-10.52,2.13-12.65,1.79A3.09,3.09,0,0,1,104.53,117.69Z" transform="translate(-4.98 -80.96)"/><path class="cls-1" d="M136.43,118.25c-1.56-.34-4.7-3-5.59-4.93-.56-1.23-.9-4.37-.9-7a15.42,15.42,0,0,1,.23-3.47l1-4.6c.79-3.47,3.25-7.83,5.71-9.74a22.4,22.4,0,0,1,4.59-2.35,12.11,12.11,0,0,1,4.37-1,9.6,9.6,0,0,1,4.59,1.34c3.36,1.68,5.15,3.69,5.15,5.93A45.14,45.14,0,0,1,153,106.16c-.68,1.67-1.68,3.91-2,4.92-.78,2.24-3.58,5.38-6.72,6.83a8.18,8.18,0,0,1-3.69.9A23,23,0,0,1,136.43,118.25Zm6-1.57c2.8-1.23,3.81-2.35,5.82-5.49a32.23,32.23,0,0,0,4.59-14.78c.12-1.68.34-3.36.45-5L152.45,90a4.48,4.48,0,0,0-2.35-1.79,8.6,8.6,0,0,1-2.92-1.12,3.62,3.62,0,0,0-1.67-.67,6,6,0,0,0-1.68.45c-4,1.45-5.38,3.92-7.06,13a51.33,51.33,0,0,0-.9,8.4c0,4.15,1,6.83,3,8.4l1.34,1Z" transform="translate(-4.98 -80.96)"/><path class="cls-1" d="M33.08,161.2c0-3.47.23-8.85.45-16.12.11-3.25.22-6.05.22-8.07a11.32,11.32,0,0,0-.22-3.24c-1.12,0-8.62,13.66-9.18,16.68a9.26,9.26,0,0,1-1.68,4.14,2.56,2.56,0,0,1-1.91.9c-1.67,0-2.9-2.13-3.69-6.05a34.75,34.75,0,0,0-1.23-4.81,26.22,26.22,0,0,1-1-3.14c-.67-2.57-2.24-5.26-2.69-4.59-1,1.46-1.56,3.47-2.12,7.28a43.86,43.86,0,0,1-1.12,5.26c-.23.79-.79,3.92-1.24,7.06-.89,6.15-.89,6.71-2,6.71-.45,0-.67-1.23-.67-2.46a7.72,7.72,0,0,1,.45-3c.45-.9,1.34-7,2.57-14a23.28,23.28,0,0,1,1.34-5A29.51,29.51,0,0,0,11,133c.45-2.46,1.12-4.14,1.46-4.14H13a3,3,0,0,1,1.9.45,15.46,15.46,0,0,1,3.14,6.38,89.24,89.24,0,0,0,3,11c.34.9.78,1.35,1.23,1.35.79,0,1.57-1.12,2.24-3.25a12.28,12.28,0,0,1,2.13-3.92,7,7,0,0,0,1.57-2.46c0-.56,1.56-3.7,2.46-4.14a19.68,19.68,0,0,0,2-3.14c1.12-1.9,2.12-2.91,2.91-2.91h1.23c2.35,0,2.91.22,2.91,3.36,0,1,0,2.35-.11,4.14-.22,4-.34,8-.56,12a46.51,46.51,0,0,1-.68,7.17c-.1.22-.33,2.57-.56,5.26-.22,3-.66,4.93-1.22,5l-1,.22c-1,.23-2,.34-2.24.11S33.08,163.77,33.08,161.2Z" transform="translate(-4.98 -80.96)"/><path class="cls-1" d="M65.32,164.45c-.11-1.24-.11-2.8-.11-4.26s0-2.91.11-3.92a17.76,17.76,0,0,0,.22-3.8,17.14,17.14,0,0,0-4.92.33c-2,.23-3.92.56-5.94.79-1.34.22-2.68,3.24-3,7.5-.22,3-1.68,5.59-2.8,5.26-.56-.11,1-8.85,1.91-9.29.33-.11.78-1.57,1-2.91.56-2.24,4.37-13.66,5.38-14.9a20.81,20.81,0,0,0,2-4.36,28.67,28.67,0,0,1,3.48-6.38c1.67-2.24,2.23-2.58,3.8-2.58a3.52,3.52,0,0,1,3.14,1.57L71,129.18l.34,5.82c0,1.34.11,2.57.11,3.47a8.58,8.58,0,0,1-.22,2.58,5.15,5.15,0,0,0-.23,2.23,20.36,20.36,0,0,1,.11,2.47,4.28,4.28,0,0,1-.56,2.69c-.11.11-.11.11-.11.22,0,.34.34.78,1,1.12.9.45,1.12,1,.9,1.23-2,.9-2.24,1.9-2.47,8.4C69.69,167,69,168.92,67,169H65.66Zm-5-13.33c1.8-.11,3.7-.33,5.49-.44,0-1.35.11-2.8.11-4.15a24,24,0,0,1,.45-4.81,41.07,41.07,0,0,0,.22-4.48c0-3.58-.22-7.84-.67-9a1.07,1.07,0,0,0-.78-.78c-.68.11-2.92,3.47-3.81,5.71a30.51,30.51,0,0,1-1.34,3c-.79,1-5.83,15-5.49,15.12A42.94,42.94,0,0,0,60.28,151.12Z" transform="translate(-4.98 -80.96)"/><path class="cls-1" d="M88.49,163.44a11.75,11.75,0,0,0-1.23-2.35c-1.35-2.13-2-7.28-2-12.43a38.61,38.61,0,0,1,.78-8.51c.9-3.81,6-10.64,9.18-12.09a11.25,11.25,0,0,1,3.92-1c1.68,0,5,1.57,5.71,2.69a3.81,3.81,0,0,1,.33,1.68c0,2.35-1.56,5.71-3,5.71h-1l.68-1.12a13.71,13.71,0,0,0,1-2.8,2.92,2.92,0,0,0,.12-1c0-.78-.34-1.23-1.46-2.35A3.89,3.89,0,0,0,99,128.39c-.68,0-1.35.56-2.13,1.46-.45.56-1,1.34-1.46,1.79-2.68,2.69-3.92,6.94-4.25,15.56,0,1.24-.11,2.36-.11,3.48,0,6,.78,11,2,12.2s1.79,1.79,2.24,1.79a2.73,2.73,0,0,0,1.23-.56c3.47-2,6.61-5.93,6.61-7.84,0-.44.33-.89.67-.89s.78-.56,1-1.35c.45-1.68,1.12-2.79,1.56-2.57.23.11-.33,2-1,4.25a11.8,11.8,0,0,1-2.8,5.38,6.37,6.37,0,0,0-1.46,1.79c0,.78-2.12,2.35-3.92,2.8a10.19,10.19,0,0,1-2,.22C92.19,165.9,88.49,164.67,88.49,163.44Z" transform="translate(-4.98 -80.96)"/><path class="cls-1" d="M135.29,163.33c-.56-.56-.79-1.12-.79-3.47,0-1,0-2.36.11-4,.12-3.7.34-7.39.45-8.07v-.44a2.45,2.45,0,0,0-.45-1.46,3.1,3.1,0,0,0-1.45-.22c-2.13,0-6.16.67-6.72,1.23a2.4,2.4,0,0,1-1.34.45,1.5,1.5,0,0,0-1.12.44c-.11.23-.45,2.92-.79,5.94-1,9.07-1.56,10.63-4,10.07l-1.56-.33V159.3c0-2.35.11-4.37.44-4.71a17.27,17.27,0,0,0,.79-5.26c.22-3.13.33-6.27.56-9.4.11-2.47.45-5.15.45-5.83s.22-2.23.22-3.58a6.29,6.29,0,0,1,1.12-3.69,2.83,2.83,0,0,1,2-1.23,1.39,1.39,0,0,1,1.24,1,15.78,15.78,0,0,1,.22,3.36c0,1.91-.11,4.26-.22,6.83-.12,3-.34,6.16-.45,9.18l1.79-.33a38.45,38.45,0,0,1,5.37-.68c2-.11,3.81-.56,4-.89a41.54,41.54,0,0,0,.79-7.17c.56-8.51.67-10,1.68-10.75a2.77,2.77,0,0,1,1.45-.67c1.35,0,1.8,2.47,1.8,8.4,0,8.51-1.46,27.66-2.13,28.55a2.76,2.76,0,0,1-2.24,1.46A1.8,1.8,0,0,1,135.29,163.33Z" transform="translate(-4.98 -80.96)"/><path class="cls-1" d="M155.66,162c-1.24-1.34-1.34-2.12-1.34-7.5,0-10.19,2.46-26.09,4.36-27.21a3.73,3.73,0,0,1,1.9-.44c.9,0,1.68.22,1.8.78a22.07,22.07,0,0,1,.11,3,221.05,221.05,0,0,1-1.57,22.4c-.78,7.16-1.79,10.3-3.25,10.3Q156.83,163.33,155.66,162Z" transform="translate(-4.98 -80.96)"/><path class="cls-1" d="M171.33,163.77c0-.22.11-.56.11-1a4.55,4.55,0,0,1,1-2.47,2.65,2.65,0,0,0,.67-1.68,9.59,9.59,0,0,1,.56-2,48.67,48.67,0,0,0,1.34-6.05c.45-2.68,1-4.92,1.24-4.92s.44-.45.44-1a30.25,30.25,0,0,1,1-5.38c.67-2.46,1.12-4.59.9-4.7s-.11-.11-.11-.22a6.09,6.09,0,0,1,.56-2,6.12,6.12,0,0,0,.44-2.8,1,1,0,0,1-.11-.56,1.58,1.58,0,0,1,1.45-1.56c.56,0,.9.11.9.44s.68.56,1.46.68c1.23.22,1.79,1,3.92,5.26l3.13,6.38a6.84,6.84,0,0,1,.67,2,9.5,9.5,0,0,0,1,2.8c.45,1,1.57,3.59,2.35,5.6s1.57,3.7,1.91,3.7.78-1,1.23-2.24a86.32,86.32,0,0,0,3.13-12.88,5.94,5.94,0,0,1,.56-2.35c.56-1.12,2.24-6.83,2.24-8.84a1.81,1.81,0,0,1,.78-1.57,2.17,2.17,0,0,1,.9-.23c.56,0,.78.23.78,1.12a23,23,0,0,1-1,5.15c-.9,3.36-1.57,5.71-2.58,10.64a47.1,47.1,0,0,1-1.23,4.82,52.86,52.86,0,0,0-2.46,11.19c0,2-.23,2.58-1.46,2.58a6.54,6.54,0,0,1-1.34-.11l-1.68-.34-1.91-3.7a18.1,18.1,0,0,1-1.9-4.81c0-.56-.22-1-.33-1a12.07,12.07,0,0,1-1.57-2.91c-.67-1.57-2.13-4.81-3.36-7.17a26.51,26.51,0,0,1-2.24-5c0-.9-.89-2.13-1.57-2.13a6.52,6.52,0,0,0-.67,2.13,15.22,15.22,0,0,1-.78,2.91,119.11,119.11,0,0,0-3.47,14.22c-.23,1.34-1,3.92-1.57,5.82l-1.35,4.25c-.11.34-.67.56-1.23.56S171.33,164.22,171.33,163.77Z" transform="translate(-4.98 -80.96)"/><path class="cls-1" d="M219.58,163.66c-1-.78-1.46-1.9-1.46-4.25a94.08,94.08,0,0,1,1.12-10.3l1-6.83c.45-2.91,1-5.94,1.23-6.61a20.39,20.39,0,0,0,.79-2.8c.67-4.48,1.23-5.15,2.68-5.71a7.31,7.31,0,0,1,1.68-.56c.56,0,.67.45.79,1.23a1.33,1.33,0,0,0,1.34,1.24c2.8,0,5.71.11,8.51.11,4.14,0,7.61.11,7.73.33.33.68-2.47,1.12-8.52,1.12a40.28,40.28,0,0,0-7.5.45l-1.9.56c-.11.78-.11,1.57-.22,2.35l-.79,5.49c-.22,1.68-.45,2.68-.45,3.47,0,1.23.45,1.45,2.24,1.45,5.6,0,8.29-.33,9.41-1,.78-.45,1.57-.68,1.79-.45.9.89-1.12,1.57-5.71,1.9-6.72.45-7.5.79-8.4,2.35s-2.12,10.64-2.12,13.89c0,.56,0,.89.11,1,.22.34,1.45.56,2.68.56,2,0,3.25-.22,8.52-1.45a3.42,3.42,0,0,1,1-.11c.34,0,.56.11.56.22,0,.34-.9,1-2.35,1.46-1.12.33-2.35.78-2.69.89a19.78,19.78,0,0,1-2.8.56l-2.57.34a4.3,4.3,0,0,1-1.23.11A9.45,9.45,0,0,1,219.58,163.66Z" transform="translate(-4.98 -80.96)"/></svg>